***************************************************************

The Last Stand 2013 1080p x264  ACC - alrmothe

***************************************************************

Title : The Last Stand
YEAR: 2013
GENRE : Action | Crime | Thriller       
imdb URL :http://www.imdb.com/title/tt1549920/
Format: MP4
Overall bit rate: 7665 kbps
Format version: Version 4 / Version 2
File size: 5.73 GiB
Duration:  1h 47mn
Sub:Arabic,English,Dutch,Swedish,Norwegian,Danish
***************************************************************

Video
Format : AVC 
Format/Info : Advanced Video Codec 
Format profile : High@L4.0 
Format settings, CABAC : Yes 
Format settings, ReFrames : 4 frames  
Codec ID : V_MPEG4/ISO/AVC  
Bit rate : 7212 kbps 
Width : 1920 pixels 
Height : 804 pixels 
Display aspect ratio : 16:9 
Frame rate : 24 fps 
Color space : YUV 
Chroma subsampling : 4:2:0 
Bit depth : 8 bits 
Scan type : Progressive 
Bits/(Pixel*Frame) : 0.195 
Stream size: 5.26 GiB 


Audio 
Format: ACC
Bit rate :448 Kbps
Channel(s) : 6 channels
Channel positions:Front: L C R, Side: L R, LFE
Sampling rate: 48.0 KHz
Bit depth: 24 bits
Compression mode: Lossy
Stream size: 343 GiB
Language : English

***************************************************************

sample: yes


Source 
http://img197.imageshack.us/img197/4396/vlcsnap2013042616h30m15.png


After Encoded  
http://img600.imageshack.us/img600/1398/vlcsnap2013042616h34m22.png


Screenshots 
http://img836.imageshack.us/img836/8228/vlcsnap2013042616h21m25.png 
http://img600.imageshack.us/img600/56/vlcsnap2013042616h28m52.png 
http://img12.imageshack.us/img12/4223/vlcsnap2013042616h42m37.png 
http://img823.imageshack.us/img823/8288/vlcsnap2013042616h45m43.png 
http://img96.imageshack.us/img96/4241/vlcsnap2013042616h46m22.png 
http://img844.imageshack.us/img844/4682/vlcsnap2013042616h53m06.png
